<?xml version="1.0" standalone="no"?>
<!DOCTYPE svg PUBLIC "-//W3C//DTD SVG 20010904//EN"
 "http://www.w3.org/TR/2001/REC-SVG-20010904/DTD/svg10.dtd">
<svg version="1.0" xmlns="http://www.w3.org/2000/svg"
 width="1920.000000pt" height="1920.000000pt" viewBox="0 0 1920.000000 1920.000000"
 preserveAspectRatio="xMidYMid meet">
<metadata>
Created by potrace 1.14, written by Peter Selinger 2001-2017
</metadata>
<g transform="translate(0.000000,1920.000000) scale(0.100000,-0.100000)"
fill="#000000" stroke="none">
<path d="M0 9600 l0 -9600 9600 0 9600 0 0 9600 0 9600 -9600 0 -9600 0 0
-9600z m14643 8700 c134 -42 247 -147 298 -278 33 -85 37 -211 10 -299 -28
-93 -4615 -8042 -4686 -8121 -58 -65 -112 -103 -187 -130 -316 -117 -651 136
-625 474 3 41 16 97 29 130 27 66 4601 7993 4655 8066 35 48 100 101 163 133
94 48 235 58 343 25z m-4693 -1280 c384 -20 732 -63 1095 -135 121 -24 246
-53 278 -65 101 -38 194 -127 238 -229 114 -261 -53 -559 -337 -603 -65 -10
-84 -8 -299 35 -653 129 -1269 166 -1880 112 -1682 -149 -3216 -914 -4334
-2160 -623 -695 -1090 -1513 -1371 -2399 -347 -1097 -400 -2272 -154 -3391
338 -1532 1213 -2898 2460 -3835 1025 -771 2219 -1216 3514 -1310 191 -14 685
-14 880 0 2602 186 4820 1846 5723 4285 339 916 469 1940 371 2920 -130 1302
-652 2546 -1491 3552 -122 146 -139 173 -163 251 -101 325 194 632 525 547 97
-25 159 -69 254 -180 616 -716 1109 -1595 1410 -2518 441 -1353 485 -2820 125
-4187 -521 -1976 -1821 -3647 -3599 -4627 -906 -500 -1864 -793 -2935 -899
-219 -22 -869 -30 -1108 -15 -1333 87 -2575 505 -3672 1234 -1711 1138 -2874
2933 -3214 4962 -167 993 -126 2043 115 3010 269 1076 751 2044 1442 2899 367
453 837 907 1302 1257 808 609 1759 1057 2748 1294 670 160 1407 229 2077 195z"/>
</g>
</svg>
